<svg xmlns="http://www.w3.org/2000/svg" height="24" width="24"><path d="M12 22q-2.35-.3-4.2-1.2-1.85-.9-3.138-2.35Q3.375 17 2.7 15.087q-.675-1.912-.675-4.237 2.75.275 4.65 1 1.9.725 3.088 2.05 1.187 1.325 1.712 3.312Q12 19.2 12 22Zm0-8.425q-.575-.875-1.562-1.725Q9.45 11 8.15 10.3q.15-1.05.5-2.175Q9 7 9.5 5.912q.5-1.087 1.137-2.087.638-1 1.363-1.825.725.825 1.363 1.825.637 1 1.137 2.087.5 1.088.85 2.213t.5 2.175q-1.3.675-2.288 1.525-.987.85-1.562 1.75Zm2 8.025q-.05-1.75-.262-3.237-.213-1.488-.663-2.813 1.175-2.025 3.237-3.3 2.063-1.275 5.663-1.4.025 3.95-2.112 6.812Q17.725 20.525 14 21.6Z"/></svg>